<svg t="1740060209345" class="icon" viewBox="0 0 1024 1024" version="1.1"
 xmlns="http://www.w3.org/2000/svg" p-id="11452" width="40" height="40">
 <path d="M358.4 416.256A685.292 685.292 0 0 1 477.327 30.433c16.65-24.453 52.695-24.453 69.356 0A685.322 685.322 0 0 1 665.6 416.246V870.4a61.44 61.44 0 0 1-61.44 61.44H419.84a61.44 61.44 0 0 1-61.44-61.44V416.256z" fill="#FF7744" p-id="11453"></path>
 <path d="M409.6 931.84a92.16 92.16 0 0 0 92.16 92.16h20.48a92.16 92.16 0 0 0 92.16-92.16H409.6zM20.48 860.16v-91.116a561.07 561.07 0 0 0 328.96-252.272l8.96-15.012v358.4H20.48z m983.04 0v-91.116a561.07 561.07 0 0 1-328.96-252.272l-8.96-15.012v358.4h337.92z" fill="#E36130" p-id="11454"></path>
 <path d="M56.32 665.6q56.32 0 56.32 56.32v163.84q0 56.32-56.32 56.32T0 885.76V721.92q0-56.32 56.32-56.32zM967.68 665.6q56.32 0 56.32 56.32v163.84q0 56.32-56.32 56.32t-56.32-56.32V721.92q0-56.32 56.32-56.32z" fill="#FF7744" p-id="11455"></path>
 <path d="M664.678 457.902c-49.1 5.376-100.198 8.213-152.678 8.213s-103.578-2.837-152.678-8.213a885.043 885.043 0 0 1 28.21-184.811C425.39 281.836 467.559 286.72 512 286.72c44.442 0 86.61-4.884 124.467-13.63a885.105 885.105 0 0 1 28.211 184.812z" fill="#E36130" p-id="11456"></path>
 <path d="M460.8 378.88a51.2 51.2 0 1 0 102.4 0 51.2 51.2 0 1 0-102.4 0z" fill="#FFA17E" p-id="11457"></path>
</svg>