<?xml version="1.0" standalone="no"?><!DOCTYPE svg PUBLIC "-//W3C//DTD SVG 1.1//EN" "http://www.w3.org/Graphics/SVG/1.1/DTD/svg11.dtd"><svg t="1758865886206" class="icon" viewBox="0 0 1024 1024" version="1.1" xmlns="http://www.w3.org/2000/svg" p-id="34345" xmlns:xlink="http://www.w3.org/1999/xlink" width="48" height="48"><path d="M340.736 463.872c-0.512-6.528-1.408-13.056-1.664-19.584-1.792-46.08 5.376-91.008 16.768-135.552 10.496-40.96 27.52-78.976 47.872-115.712 36.096-0.128 72.32-0.128 108.416-0.256l-0.256 0.64c0.128 35.2 0.128 70.4 0.256 105.6-1.536 0.128-2.944 0.256-4.48 0.384-48.256 1.408-85.504 50.56-73.728 97.536 9.472 37.888 36.48 59.776 78.208 63.488 0 50.944-0.128 101.888-0.128 152.832l0.256 0.512c-43.904-0.128-87.68-0.128-131.584-0.256-20.992-48-35.072-97.536-39.936-149.632z" fill="#E0F0F9" p-id="34346"></path><path d="M512.128 612.992c0-50.944 0.128-101.888 0.128-152.832l-0.128-0.768c43.776 1.408 81.408-37.632 80.256-81.92-1.408-49.792-44.8-80.384-80.256-78.08l0.128-0.64c-0.128-35.2-0.128-70.4-0.256-105.6 5.888 0.384 11.776 1.152 17.664 1.152 30.208 0.128 60.288 0 90.496 0 10.112 20.864 21.248 41.472 30.336 62.848 15.104 35.456 25.088 72.704 30.848 110.848 4.736 31.616 6.016 63.616 2.432 95.488-4.48 52.224-18.688 101.76-40.064 149.504-43.904 0.128-87.808 0.128-131.584 0z" fill="#CCEAFB" p-id="34347"></path><path d="M340.736 463.872c4.864 52.096 19.072 101.632 40.064 149.376-0.128 13.824-0.384 27.52-0.512 41.344l-75.264 65.664c-2.944 2.56-5.76 5.248-8.832 7.68-13.184 10.24-28.8 5.376-32.768-10.752-7.04-28.672-9.344-57.6-7.552-87.296 2.048-34.304 9.984-66.688 25.856-97.024 14.208-27.52 33.664-50.816 59.008-68.992z" fill="#FE5B5B" p-id="34348"></path><path d="M643.584 613.248c21.376-47.616 35.584-97.28 40.064-149.504 42.112 31.104 67.328 73.088 79.104 123.52 9.728 41.856 8.448 83.84-0.256 125.696-4.48 21.632-20.864 26.752-37.76 12.16-26.88-23.424-53.76-46.976-80.64-70.528-0.128-13.824-0.256-27.52-0.512-41.344z" fill="#FE1A3E" p-id="34349"></path><path d="M643.584 613.248c0.128 13.696 0.384 27.52 0.512 41.216-0.128 13.44-0.256 27.008-0.256 40.448-0.128 13.952-8.064 22.144-22.016 22.784-6.528 0.256-13.184 0.256-19.712 0.256-3.584-0.128-7.168-0.384-10.752-0.512l-79.104-0.384v-103.552l-0.256-0.512c43.904 0.128 87.808 0.128 131.584 0.256z" fill="#001035" p-id="34350"></path><path d="M512.384 613.504v103.552c0 0.256-0.128 0.64-0.256 0.896h-89.6l-18.816-0.384c-15.104-0.512-23.04-8.576-23.168-23.552-0.128-13.184-0.256-26.24-0.256-39.424 0.128-13.824 0.384-27.52 0.512-41.344 43.904 0.128 87.68 0.128 131.584 0.256z" fill="#1D3C6A" p-id="34351"></path><path d="M512.384 717.056l79.104 0.384c3.584 0 7.168 0.256 10.752 0.512-2.304 65.664-30.208 120.32-71.808 169.344-4.736 5.632-9.984 10.496-18.304 9.216V717.952c0.128-0.256 0.128-0.512 0.256-0.896z" fill="#FCBE01" p-id="34352"></path><path d="M512.128 717.952v178.56c-5.248-2.304-12.032-3.2-15.488-7.168-34.56-38.784-60.032-82.688-70.016-134.272-2.432-12.288-2.816-24.832-4.096-37.376 29.824 0.256 59.648 0.256 89.6 0.256z" fill="#FEF161" p-id="34353"></path><path d="M620.16 194.56c-30.208 0-60.288 0.128-90.496 0-5.888 0-11.776-0.768-17.664-1.152l0.256-0.64c-0.64-45.568-1.152-91.136-1.792-136.832 4.224 1.408 9.472 1.792 12.416 4.608 26.24 23.936 46.976 52.48 66.304 82.048 11.008 16.896 20.736 34.56 30.976 51.968z" fill="#FE1A3E" p-id="34354"></path><path d="M510.464 55.936c0.64 45.568 1.152 91.136 1.792 136.832-36.096 0.128-72.32 0.128-108.416 0.256 18.304-28.672 35.968-57.856 55.296-86.016 10.624-15.488 23.552-29.568 36.224-43.52 3.456-3.968 9.984-5.12 15.104-7.552z" fill="#FE5B5B" p-id="34355"></path><path d="M512.256 460.16c-41.856-3.712-68.736-25.6-78.208-63.488-11.776-46.976 25.472-96.128 73.728-97.536 1.536 0 2.944-0.256 4.48-0.384l-0.128 0.64c0.128 13.056 0.128 26.112 0.256 39.168-29.696 2.304-47.872 28.672-37.632 55.04 6.528 16.768 20.224 24.576 37.632 26.496 0 13.056-0.128 26.112-0.128 39.168v0.896z" fill="#1C3C6C" p-id="34356"></path><path d="M512.384 338.816c-0.128-13.056-0.128-26.112-0.256-39.168 35.328-2.304 78.848 28.288 80.256 78.08 1.28 44.288-36.48 83.328-80.256 81.92 0-13.056 0.128-26.112 0.128-39.168l-0.256-0.64c2.688-0.384 5.376-0.64 7.936-1.28 21.76-4.736 34.048-22.144 31.872-45.056-1.792-19.072-19.2-34.048-39.808-34.432l0.384-0.256z" fill="#011236" p-id="34357"></path><path d="M512.256 420.352c-17.408-1.92-30.976-9.6-37.632-26.496-10.24-26.368 7.936-52.736 37.632-55.04l-0.256 0.384v80.768l0.256 0.384z" fill="#06CAAA" p-id="34358"></path><path d="M512 419.84v-80.768c20.608 0.384 38.016 15.36 39.808 34.432 2.176 22.912-10.112 40.32-31.872 45.056-2.56 0.64-5.248 0.896-7.936 1.28z" fill="#1CABB3" p-id="34359"></path></svg>